<?xml version="1.0" encoding="UTF-8" standalone="no"?>
<svg width="489px" height="108px" viewBox="0 0 489 108" version="1.1" xmlns="http://www.w3.org/2000/svg" xmlns:xlink="http://www.w3.org/1999/xlink" xmlns:sketch="http://www.bohemiancoding.com/sketch/ns">
    <!-- Generator: Sketch 3.3.2 (12043) - http://www.bohemiancoding.com/sketch -->
    <title>TOO LONG DIDN’T READ</title>
    <desc>Created with Sketch.</desc>
    <defs></defs>
    <g id="Welcome" stroke="none" stroke-width="1" fill="none" fill-rule="evenodd" sketch:type="MSPage">
        <g id="Desktop-HD" sketch:type="MSArtboardGroup" transform="translate(-711.000000, -63.000000)" fill="#FFFFFF">
            <path d="M716.467346,97.595 C716.796346,98.911 718.723346,99.334 719.099346,97.924 L719.099346,97.313 C719.099346,95.057 719.287346,91.438 719.287346,89.511 C719.381346,83.448 719.569346,68.549 719.616346,68.502 L724.739346,68.596 C726.102346,68.596 726.243346,66.246 724.128346,66.058 C720.321346,65.776 716.749346,65.87 713.083346,65.776 C710.780346,66.34 711.344346,67.797 712.848346,68.22 L716.608346,68.361 C716.655346,68.408 716.702346,77.526 716.702346,81.145 C716.702346,84.529 716.514346,94.258 716.467346,97.595 L716.467346,97.595 Z M736.329762,93.976 C737.457762,98.3 739.619762,100.65 743.567762,100.65 C743.755762,100.65 743.943762,100.603 744.131762,100.603 C754.471762,99.71 753.061762,66.293 742.627762,66.293 C730.830762,66.293 735.718762,91.156 736.329762,93.976 L736.329762,93.976 Z M742.345762,68.878 L742.721762,68.878 C749.395762,68.878 748.784762,86.315 748.032762,90.075 C747.609762,92.284 746.575762,97.783 743.426762,98.065 C743.285762,98.065 743.097762,98.112 742.862762,98.065 C740.512762,97.83 738.961762,93.365 738.585762,91.814 C737.692762,88.383 735.248762,69.536 742.345762,68.878 L742.345762,68.878 Z M766.203177,93.976 C767.331177,98.3 769.493177,100.65 773.441177,100.65 C773.629177,100.65 773.817177,100.603 774.005177,100.603 C784.345177,99.71 782.935177,66.293 772.501177,66.293 C760.704177,66.293 765.592177,91.156 766.203177,93.976 L766.203177,93.976 Z M772.219177,68.878 L772.595177,68.878 C779.269177,68.878 778.658177,86.315 777.906177,90.075 C777.483177,92.284 776.449177,97.783 773.300177,98.065 C773.159177,98.065 772.971177,98.112 772.736177,98.065 C770.386177,97.83 768.835177,93.365 768.459177,91.814 C767.566177,88.383 765.122177,69.536 772.219177,68.878 L772.219177,68.878 Z M817.349008,65.635 L817.349008,71.604 L817.960008,83.213 C818.242008,88.759 818.007008,94.822 818.571008,100.462 C818.665008,101.073 819.464008,101.731 820.028008,101.731 C820.780008,101.731 821.438008,101.261 822.049008,101.12 C823.694008,100.65 825.809008,100.744 827.407008,100.18 C828.206008,99.898 828.347008,99.428 828.347008,98.817 C828.347008,97.877 827.595008,97.642 826.749008,97.642 C824.916008,97.642 822.519008,98.253 821.109008,98.629 C820.169008,87.96 820.216008,77.197 819.840008,66.575 C819.652008,65.87 819.041008,64.93 818.289008,64.93 C817.866008,64.93 817.584008,65.118 817.349008,65.635 L817.349008,65.635 Z M837.775423,93.976 C838.903423,98.3 841.065423,100.65 845.013423,100.65 C845.201423,100.65 845.389423,100.603 845.577423,100.603 C855.917423,99.71 854.507423,66.293 844.073423,66.293 C832.276423,66.293 837.164423,91.156 837.775423,93.976 L837.775423,93.976 Z M843.791423,68.878 L844.167423,68.878 C850.841423,68.878 850.230423,86.315 849.478423,90.075 C849.055423,92.284 848.021423,97.783 844.872423,98.065 C844.731423,98.065 844.543423,98.112 844.308423,98.065 C841.958423,97.83 840.407423,93.365 840.031423,91.814 C839.138423,88.383 836.694423,69.536 843.791423,68.878 L843.791423,68.878 Z M863.888839,101.637 C863.935839,103.047 865.580839,104.316 866.661839,101.872 L866.990839,75.082 C869.810839,83.918 873.100839,92.519 876.014839,101.308 C876.202839,101.637 876.907839,102.201 877.330839,102.201 C877.753839,102.201 878.364839,101.543 878.458839,101.308 L878.505839,100.697 C878.834839,89.887 879.210839,79.077 880.056839,68.925 C879.774839,68.455 879.304839,68.314 878.740839,68.314 C877.988839,68.314 877.142839,68.69 876.954839,69.489 C877.001839,75.411 876.954839,80.534 876.437839,86.456 L875.967839,93.036 C872.536839,84.623 870.609839,76.398 867.789839,68.314 C867.319839,67.656 865.956839,66.152 865.063839,67.844 L863.888839,101.637 Z M901.470254,101.966 C901.799254,102.013 902.081254,101.966 902.410254,101.966 C909.225254,101.637 908.802254,92.942 908.520254,87.819 L908.520254,87.349 C908.379254,84.435 908.567254,82.085 907.157254,81.709 C904.102254,81.756 900.859254,81.474 900.859254,82.884 C900.859254,82.931 901.000254,84.106 901.423254,84.388 C902.927254,84.529 904.290254,84.153 905.653254,84.153 L906.029254,91.109 C906.170254,93.788 906.029254,99.381 901.752254,99.616 L901.517254,99.616 C898.791254,99.616 897.522254,97.266 897.052254,95.057 C896.065254,90.639 896.065254,87.161 895.830254,82.461 L895.830254,81.521 C895.830254,77.996 896.582254,71.416 900.953254,71.181 L901.141254,71.181 C903.538254,71.181 904.149254,73.719 905.841254,73.719 C906.640254,73.719 906.875254,73.108 906.875254,72.544 C906.875254,68.784 900.765254,68.314 898.415254,69.442 C894.326254,71.416 893.480254,78.607 893.480254,82.32 C893.480254,94.587 895.125254,102.342 901.470254,101.966 L901.470254,101.966 Z M945.848085,66.528 L945.801085,66.81 C945.754085,67.703 945.660085,74.565 945.613085,75.364 C945.378085,81.474 945.143085,87.161 945.002085,93.177 C944.955085,95.339 944.908085,100.603 944.908085,100.603 C945.613085,100.744 946.271085,100.791 946.929085,100.791 C954.919085,100.791 957.457085,93.6 957.692085,84.67 C957.692085,84.059 957.739085,83.354 957.739085,82.649 C957.739085,75.787 956.564085,65.87 948.104085,65.494 L947.916085,65.494 C947.211085,65.494 945.895085,65.729 945.848085,66.528 L945.848085,66.528 Z M948.480085,68.126 C955.107085,68.69 955.295085,80.44 955.060085,84.858 C954.872085,88.712 953.885085,98.77 947.916085,98.77 C947.869085,98.77 947.775085,98.77 947.399085,98.723 L948.480085,68.126 Z M971.2095,67.374 C971.1155,70.758 971.6325,74.142 971.8675,77.526 L973.0425,98.159 C973.1835,99.052 973.3715,99.945 974.4055,99.945 C975.2045,99.945 975.9565,99.663 976.0035,98.911 C976.0035,98.065 975.8625,97.313 975.7685,96.42 L973.7005,67.75 C973.6065,66.622 971.2565,66.199 971.2095,67.374 L971.2095,67.374 Z M990.366915,66.528 L990.319915,66.81 C990.272915,67.703 990.178915,74.565 990.131915,75.364 C989.896915,81.474 989.661915,87.161 989.520915,93.177 C989.473915,95.339 989.426915,100.603 989.426915,100.603 C990.131915,100.744 990.789915,100.791 991.447915,100.791 C999.437915,100.791 1001.97592,93.6 1002.21092,84.67 C1002.21092,84.059 1002.25792,83.354 1002.25792,82.649 C1002.25792,75.787 1001.08292,65.87 992.622915,65.494 L992.434915,65.494 C991.729915,65.494 990.413915,65.729 990.366915,66.528 L990.366915,66.528 Z M992.998915,68.126 C999.625915,68.69 999.813915,80.44 999.578915,84.858 C999.390915,88.712 998.403915,98.77 992.434915,98.77 C992.387915,98.77 992.293915,98.77 991.917915,98.723 L992.998915,68.126 Z M1015.68133,101.637 C1015.72833,103.047 1017.37333,104.316 1018.45433,101.872 L1018.78333,75.082 C1021.60333,83.918 1024.89333,92.519 1027.80733,101.308 C1027.99533,101.637 1028.70033,102.201 1029.12333,102.201 C1029.54633,102.201 1030.15733,101.543 1030.25133,101.308 L1030.29833,100.697 C1030.62733,89.887 1031.00333,79.077 1031.84933,68.925 C1031.56733,68.455 1031.09733,68.314 1030.53333,68.314 C1029.78133,68.314 1028.93533,68.69 1028.74733,69.489 C1028.79433,75.411 1028.74733,80.534 1028.23033,86.456 L1027.76033,93.036 C1024.32933,84.623 1022.40233,76.398 1019.58233,68.314 C1019.11233,67.656 1017.74933,66.152 1016.85633,67.844 L1015.68133,101.637 Z M1045.83675,83.025 C1046.25975,83.495 1046.49475,83.636 1047.01175,83.636 C1047.66975,83.636 1048.13975,82.743 1048.13975,82.179 L1048.13975,66.293 C1048.13975,65.635 1046.82375,65.4 1046.40075,65.4 C1045.64875,65.4 1045.27275,65.729 1045.27275,66.481 C1045.27275,71.933 1045.50775,77.62 1045.83675,83.025 L1045.83675,83.025 Z M1066.49816,97.595 C1066.82716,98.911 1068.75416,99.334 1069.13016,97.924 L1069.13016,97.313 C1069.13016,95.057 1069.31816,91.438 1069.31816,89.511 C1069.41216,83.448 1069.60016,68.549 1069.64716,68.502 L1074.77016,68.596 C1076.13316,68.596 1076.27416,66.246 1074.15916,66.058 C1070.35216,65.776 1066.78016,65.87 1063.11416,65.776 C1060.81116,66.34 1061.37516,67.797 1062.87916,68.22 L1066.63916,68.361 C1066.68616,68.408 1066.73316,77.526 1066.73316,81.145 C1066.73316,84.529 1066.54516,94.258 1066.49816,97.595 L1066.49816,97.595 Z M1112.70899,101.026 C1113.27299,101.919 1114.58899,101.872 1115.19999,101.026 C1115.52899,95.668 1115.10599,90.31 1115.62299,84.999 C1115.71699,84.999 1116.04599,84.952 1116.09299,84.952 C1121.54499,84.952 1122.43799,94.916 1122.67299,98.441 C1122.90799,99.193 1123.14299,99.193 1123.70699,99.193 C1124.55299,99.193 1125.06999,98.864 1125.06999,98.018 C1125.06999,92.754 1123.75399,85.093 1118.34899,82.696 C1121.35699,80.534 1123.00199,77.902 1123.00199,73.578 C1123.00199,68.173 1120.69899,63.52 1114.21299,63.52 C1113.27299,63.52 1112.05099,63.802 1112.05099,64.883 L1112.05099,65.071 C1112.09799,65.588 1112.37999,69.724 1112.37999,70.194 C1112.47399,72.403 1112.70899,80.957 1112.70899,82.414 C1112.75599,85.234 1112.75599,98.206 1112.70899,101.026 L1112.70899,101.026 Z M1114.40099,66.716 C1114.40099,66.34 1115.85799,66.34 1116.04599,66.34 C1119.42999,66.34 1120.46399,71.51 1120.46399,74.001 C1120.46399,76.962 1118.63099,80.628 1115.29399,81.286 L1114.40099,66.716 Z M1138.39941,98.629 C1138.44641,99.992 1145.12041,99.475 1146.85941,99.334 L1147.09441,99.334 C1147.70541,99.24 1147.98741,98.676 1147.98741,98.112 C1147.98741,96.044 1142.01841,97.219 1140.89041,96.937 L1140.79641,85.939 L1146.76541,85.939 C1148.92741,85.939 1147.84641,83.213 1146.24841,83.166 C1145.44941,83.166 1141.50141,83.307 1140.79641,83.119 C1140.51441,77.996 1140.04441,74.33 1140.04441,69.348 C1140.04441,69.207 1140.04441,68.972 1140.37341,68.972 L1145.49641,68.972 C1145.82541,68.831 1146.06041,68.126 1146.06041,67.797 C1146.06041,66.763 1145.21441,66.246 1137.69441,66.857 L1137.69441,69.254 C1137.69441,75.975 1138.35241,80.299 1138.35241,87.02 L1138.35241,96.326 L1138.39941,98.629 Z M1161.45782,102.906 C1161.41082,103.752 1163.43182,104.034 1163.52582,102.906 C1163.61982,100.932 1163.94882,96.749 1164.32482,94.54 L1170.66982,93.6 L1172.36182,102.06 C1173.20782,103.564 1174.61782,102.765 1174.61782,101.731 C1169.49482,76.821 1168.60182,72.544 1167.42682,67.844 C1166.62782,64.648 1163.80782,63.52 1163.52582,67.844 L1161.45782,102.906 Z M1165.59382,70.523 L1170.19982,91.438 L1164.32482,92.284 C1164.32482,91.908 1164.37182,90.075 1164.41882,89.746 C1164.55982,86.832 1165.40582,73.39 1165.59382,70.523 L1165.59382,70.523 Z M1187.85324,66.528 L1187.80624,66.81 C1187.75924,67.703 1187.66524,74.565 1187.61824,75.364 C1187.38324,81.474 1187.14824,87.161 1187.00724,93.177 C1186.96024,95.339 1186.91324,100.603 1186.91324,100.603 C1187.61824,100.744 1188.27624,100.791 1188.93424,100.791 C1196.92424,100.791 1199.46224,93.6 1199.69724,84.67 C1199.69724,84.059 1199.74424,83.354 1199.74424,82.649 C1199.74424,75.787 1198.56924,65.87 1190.10924,65.494 L1189.92124,65.494 C1189.21624,65.494 1187.90024,65.729 1187.85324,66.528 L1187.85324,66.528 Z M1190.48524,68.126 C1197.11224,68.69 1197.30024,80.44 1197.06524,84.858 C1196.87724,88.712 1195.89024,98.77 1189.92124,98.77 C1189.87424,98.77 1189.78024,98.77 1189.40424,98.723 L1190.48524,68.126 Z M807.87321,153.66 C807.87321,158.486 808.51921,164.072 811.90121,167.872 C812.69921,168.784 813.53521,169.696 814.82721,169.696 C815.13121,169.696 815.92921,169.772 815.92921,169.24 C815.92921,168.366 815.09321,168.328 814.56121,167.872 C814.37121,167.72 813.45921,166.77 813.23121,166.542 C812.39521,165.592 811.71121,164.528 811.21721,163.426 C810.07721,160.69 809.84921,157.65 809.84921,154.724 C809.84921,151.228 810.15321,148.15 811.44521,144.844 C811.90121,143.628 814.63721,140.36 814.63721,139.942 C814.63721,139.372 814.37121,138.992 813.80121,138.992 C812.88921,138.992 812.24321,139.942 811.67321,140.588 C808.74721,144.046 807.87321,149.328 807.87321,153.66 L807.87321,153.66 Z M853.709158,161.716 L854.659158,168.936 C854.697158,169.202 855.077158,169.202 855.305158,169.202 L855.419158,169.202 C856.141158,169.202 856.293158,168.898 856.559158,168.176 C856.559158,168.138 856.597158,168.138 856.597158,168.1 L856.369158,165.63 C855.343158,156.662 854.317158,147.732 852.113158,139.03 L851.809158,138.232 C851.581158,137.852 851.049158,137.662 850.631158,137.662 C849.681158,137.662 849.415158,138.726 849.225158,139.448 C849.225158,139.448 849.187158,139.524 845.235158,167.074 C845.235158,167.454 845.577158,168.442 846.071158,168.442 C847.173158,168.442 847.135158,166.808 847.211158,166.238 L847.857158,161.944 L848.085158,161.716 L853.709158,161.716 Z M850.859158,141.728 L853.405158,159.474 L848.655158,159.36 L850.859158,141.728 Z M865.930131,163.806 C865.930131,166.086 866.804131,169.582 869.616131,169.582 C871.934131,169.582 873.644131,166.884 874.252131,164.908 C875.164131,162.02 874.366131,157.764 872.808131,154.838 C871.098131,151.646 867.868131,148.948 867.868131,145.11 C867.868131,143.78 868.020131,141.082 869.958131,141.082 C872.048131,141.082 871.592131,143.362 873.074131,143.362 C873.834131,143.362 874.062131,142.944 874.062131,142.222 C874.062131,140.246 871.288131,138.916 869.616131,138.916 C866.994131,138.916 865.702131,142.45 865.702131,144.578 C865.702131,149.29 869.540131,152.71 871.326131,156.814 C872.200131,158.79 872.352131,161.032 872.352131,163.122 C872.352131,164.68 871.744131,167.606 869.616131,167.606 L869.388131,167.606 C867.488131,166.504 868.932131,163.16 867.412131,162.704 C866.804131,162.514 865.930131,163.16 865.930131,163.806 L865.930131,163.806 Z M912.450079,161.716 L913.400079,168.936 C913.438079,169.202 913.818079,169.202 914.046079,169.202 L914.160079,169.202 C914.882079,169.202 915.034079,168.898 915.300079,168.176 C915.300079,168.138 915.338079,168.138 915.338079,168.1 L915.110079,165.63 C914.084079,156.662 913.058079,147.732 910.854079,139.03 L910.550079,138.232 C910.322079,137.852 909.790079,137.662 909.372079,137.662 C908.422079,137.662 908.156079,138.726 907.966079,139.448 C907.966079,139.448 907.928079,139.524 903.976079,167.074 C903.976079,167.454 904.318079,168.442 904.812079,168.442 C905.914079,168.442 905.876079,166.808 905.952079,166.238 L906.598079,161.944 L906.826079,161.716 L912.450079,161.716 Z M909.600079,141.728 L912.146079,159.474 L907.396079,159.36 L909.600079,141.728 Z M944.872026,163.806 C944.872026,166.086 945.746026,169.582 948.558026,169.582 C950.876026,169.582 952.586026,166.884 953.194026,164.908 C954.106026,162.02 953.308026,157.764 951.750026,154.838 C950.040026,151.646 946.810026,148.948 946.810026,145.11 C946.810026,143.78 946.962026,141.082 948.900026,141.082 C950.990026,141.082 950.534026,143.362 952.016026,143.362 C952.776026,143.362 953.004026,142.944 953.004026,142.222 C953.004026,140.246 950.230026,138.916 948.558026,138.916 C945.936026,138.916 944.644026,142.45 944.644026,144.578 C944.644026,149.29 948.482026,152.71 950.268026,156.814 C951.142026,158.79 951.294026,161.032 951.294026,163.122 C951.294026,164.68 950.686026,167.606 948.558026,167.606 L948.330026,167.606 C946.430026,166.504 947.874026,163.16 946.354026,162.704 C945.746026,162.514 944.872026,163.16 944.872026,163.806 L944.872026,163.806 Z M964.883,168.784 C964.883,169.506 973.395,169.658 973.319,168.366 C973.205,166.618 971.343,167.492 968.797,167.492 C968.455,167.492 967.163,167.492 966.821,167.454 L966.935,157.536 L970.735,156.966 C972.255,156.738 972.939,154.99 971.153,154.99 L970.963,154.99 L966.859,155.598 L966.669,142.982 L971.229,142.982 C971.837,142.982 972.863,142.64 972.863,141.88 C972.863,141.804 972.863,141.766 972.825,141.69 C972.787,141.5 972.027,140.93 971.799,140.93 L965.795,140.93 C965.111,140.93 964.465,141.576 964.465,142.26 L964.883,168.784 Z M984.209974,169.81 C984.475974,170.19 984.931974,170.342 985.349974,170.342 C986.299974,170.342 986.185974,169.544 986.185974,168.822 C986.223974,165.592 986.413974,157.156 986.451974,156.814 C986.451974,156.472 986.603974,154.952 986.679974,154.61 L987.287974,154.61 C989.605974,154.61 989.985974,157.156 990.137974,159.018 C990.213974,160.31 990.555974,166.124 990.593974,167.378 C990.745974,167.91 991.239974,167.91 991.657974,167.91 L991.695974,167.91 C992.189974,167.91 992.797974,167.834 992.797974,167.188 L992.797974,166.884 C992.797974,166.656 992.569974,164.908 992.569974,164.68 C992.379974,162.058 992.797974,156.624 991.087974,154.382 C990.935974,154.116 990.061974,153.09 989.871974,152.9 C992.379974,151.19 993.101974,147.96 993.101974,145.186 L993.101974,144.768 C993.101974,141.424 990.859974,139.144 987.363974,139.144 L986.983974,139.144 C985.463974,139.144 984.817974,139.144 984.741974,140.892 C984.513974,149.442 984.209974,158.068 984.209974,166.618 L984.209974,169.81 Z M986.679974,151.57 C986.679974,148.188 986.983974,145.414 986.945974,142.108 C986.945974,141.462 987.325974,141.12 987.895974,141.12 C990.061974,141.12 990.897974,143.4 990.897974,145.186 C990.897974,146.934 989.871974,151.912 987.173974,151.912 C986.945974,151.912 986.679974,151.874 986.679974,151.57 L986.679974,151.57 Z M1007.90695,168.48 C1008.05895,168.974 1008.47695,168.974 1008.89495,168.974 C1009.42695,168.974 1009.80695,168.936 1010.07295,168.252 L1011.55495,158.486 C1012.61895,152.102 1013.56895,145.566 1015.20295,139.296 C1014.93695,138.612 1014.55695,138.536 1013.98695,138.536 C1013.30295,138.536 1012.77095,138.726 1012.77095,140.018 C1011.55495,146.972 1010.22495,155.75 1008.97095,162.704 L1005.74095,139.296 C1005.70295,139.144 1005.17095,138.65 1005.01895,138.574 C1004.71495,138.27 1003.49895,138.726 1003.27095,139.03 C1005.09495,148.72 1005.89295,158.98 1007.90695,168.48 L1007.90695,168.48 Z M1024.57392,169.278 C1024.57392,170.38 1026.70192,170.228 1026.77792,168.556 L1027.91792,142.564 C1027.91792,142.488 1027.95592,141.994 1027.95592,141.88 C1027.95592,140.778 1027.95592,140.284 1026.85392,140.284 C1026.05592,140.284 1025.86592,140.322 1025.59992,141.082 L1024.57392,169.278 Z M1046.18089,139.714 C1041.24089,139.714 1038.88489,144.996 1037.97289,148.948 C1036.22489,156.358 1037.55489,167.796 1046.18089,167.986 C1047.39689,167.986 1048.80289,167.53 1048.04289,166.2 C1047.47289,165.174 1044.96489,166.58 1043.33089,165.212 C1039.98689,162.438 1039.68289,158.98 1039.68289,154.116 C1039.68289,149.822 1041.31689,142.184 1045.00289,142.184 L1045.23089,142.184 C1045.76289,142.184 1047.96689,142.45 1047.96689,141.12 C1047.96689,140.246 1046.97889,139.714 1046.18089,139.714 L1046.18089,139.714 Z M1059.23787,168.784 C1059.23787,169.506 1067.74987,169.658 1067.67387,168.366 C1067.55987,166.618 1065.69787,167.492 1063.15187,167.492 C1062.80987,167.492 1061.51787,167.492 1061.17587,167.454 L1061.28987,157.536 L1065.08987,156.966 C1066.60987,156.738 1067.29387,154.99 1065.50787,154.99 L1065.31787,154.99 L1061.21387,155.598 L1061.02387,142.982 L1065.58387,142.982 C1066.19187,142.982 1067.21787,142.64 1067.21787,141.88 C1067.21787,141.804 1067.21787,141.766 1067.17987,141.69 C1067.14187,141.5 1066.38187,140.93 1066.15387,140.93 L1060.14987,140.93 C1059.46587,140.93 1058.81987,141.576 1058.81987,142.26 L1059.23787,168.784 Z M1105.07382,153.66 C1105.07382,149.328 1104.19982,144.046 1101.27382,140.588 C1100.70382,139.942 1100.05782,138.992 1099.14582,138.992 C1098.57582,138.992 1098.30982,139.372 1098.30982,139.942 C1098.30982,140.36 1101.04582,143.628 1101.50182,144.844 C1102.79382,148.15 1103.09782,151.228 1103.09782,154.724 C1103.09782,157.65 1102.86982,160.69 1101.72982,163.426 C1101.23582,164.528 1100.55182,165.592 1099.71582,166.542 C1099.48782,166.77 1098.57582,167.72 1098.38582,167.872 C1097.85382,168.328 1097.01782,168.366 1097.01782,169.24 C1097.01782,169.772 1097.81582,169.696 1098.11982,169.696 C1099.41182,169.696 1100.24782,168.784 1101.04582,167.872 C1104.42782,164.072 1105.07382,158.486 1105.07382,153.66 L1105.07382,153.66 Z" id="TOO-LONG-DIDN’T-READ" sketch:type="MSShapeGroup"></path>
        </g>
    </g>
</svg>