<?xml version="1.0" encoding="UTF-8" standalone="no"?>
<svg width="313px" height="126px" viewBox="0 0 313 126" version="1.1" xmlns="http://www.w3.org/2000/svg" xmlns:xlink="http://www.w3.org/1999/xlink" xmlns:sketch="http://www.bohemiancoding.com/sketch/ns">
    <!-- Generator: Sketch 3.3.2 (12043) - http://www.bohemiancoding.com/sketch -->
    <title>TL;DR</title>
    <desc>Created with Sketch.</desc>
    <defs></defs>
    <g id="Welcome" stroke="none" stroke-width="1" fill="none" fill-rule="evenodd" sketch:type="MSPage">
        <g id="Desktop-HD" sketch:type="MSArtboardGroup" transform="translate(-99.000000, -66.000000)" fill="#FFFFFF">
            <path d="M113.925,164.475 C114.87,168.255 120.405,169.47 121.485,165.42 L121.485,163.665 C121.485,157.185 122.025,146.79 122.025,141.255 C122.295,123.84 122.835,81.045 122.97,80.91 L137.685,81.18 C141.6,81.18 142.005,74.43 135.93,73.89 C124.995,73.08 114.735,73.35 104.205,73.08 C97.59,74.7 99.21,78.885 103.53,80.1 L114.33,80.505 C114.465,80.64 114.6,106.83 114.6,117.225 C114.6,126.945 114.06,154.89 113.925,164.475 L113.925,164.475 Z M179.211606,72.675 L179.211606,89.82 L180.966606,123.165 C181.776606,139.095 181.101606,156.51 182.721606,172.71 C182.991606,174.465 185.286606,176.355 186.906606,176.355 C189.066606,176.355 190.956606,175.005 192.711606,174.6 C197.436606,173.25 203.511606,173.52 208.101606,171.9 C210.396606,171.09 210.801606,169.74 210.801606,167.985 C210.801606,165.285 208.641606,164.61 206.211606,164.61 C200.946606,164.61 194.061606,166.365 190.011606,167.445 C187.311606,136.8 187.446606,105.885 186.366606,75.375 C185.826606,73.35 184.071606,70.65 181.911606,70.65 C180.696606,70.65 179.886606,71.19 179.211606,72.675 L179.211606,72.675 Z M249.358213,103.59 C249.358213,107.37 251.248213,109.53 254.623213,109.53 C257.188213,109.53 260.023213,109.125 260.023213,106.155 C260.023213,102.375 257.593213,99.54 253.948213,99.54 C252.328213,99.54 249.358213,101.835 249.358213,103.59 L249.358213,103.59 Z M249.358213,175.68 C249.358213,179.46 250.573213,184.725 250.708213,187.965 C250.843213,189.585 250.708213,191.07 252.868213,191.07 C254.083213,191.07 254.758213,190.53 255.028213,189.18 C256.108213,185.4 257.728213,181.08 257.728213,176.895 C257.728213,174.06 255.568213,172.305 252.733213,172.305 C250.303213,172.305 249.358213,173.385 249.358213,175.68 L249.358213,175.68 Z M301.279819,75.24 L301.144819,76.05 C301.009819,78.615 300.739819,98.325 300.604819,100.62 C299.929819,118.17 299.254819,134.505 298.849819,151.785 C298.714819,157.995 298.579819,173.115 298.579819,173.115 C300.604819,173.52 302.494819,173.655 304.384819,173.655 C327.334819,173.655 334.624819,153 335.299819,127.35 C335.299819,125.595 335.434819,123.57 335.434819,121.545 C335.434819,101.835 332.059819,73.35 307.759819,72.27 L307.219819,72.27 C305.194819,72.27 301.414819,72.945 301.279819,75.24 L301.279819,75.24 Z M308.839819,79.83 C327.874819,81.45 328.414819,115.2 327.739819,127.89 C327.199819,138.96 324.364819,167.85 307.219819,167.85 C307.084819,167.85 306.814819,167.85 305.734819,167.715 L308.839819,79.83 Z M375.881425,174.33 C377.501425,176.895 381.281425,176.76 383.036425,174.33 C383.981425,158.94 382.766425,143.55 384.251425,128.295 C384.521425,128.295 385.466425,128.16 385.601425,128.16 C401.261425,128.16 403.826425,156.78 404.501425,166.905 C405.176425,169.065 405.851425,169.065 407.471425,169.065 C409.901425,169.065 411.386425,168.12 411.386425,165.69 C411.386425,150.57 407.606425,128.565 392.081425,121.68 C400.721425,115.47 405.446425,107.91 405.446425,95.49 C405.446425,79.965 398.831425,66.6 380.201425,66.6 C377.501425,66.6 373.991425,67.41 373.991425,70.515 L373.991425,71.055 C374.126425,72.54 374.936425,84.42 374.936425,85.77 C375.206425,92.115 375.881425,116.685 375.881425,120.87 C376.016425,128.97 376.016425,166.23 375.881425,174.33 L375.881425,174.33 Z M380.741425,75.78 C380.741425,74.7 384.926425,74.7 385.466425,74.7 C395.186425,74.7 398.156425,89.55 398.156425,96.705 C398.156425,105.21 392.891425,115.74 383.306425,117.63 L380.741425,75.78 Z" id="TL;DR" sketch:type="MSShapeGroup"></path>
        </g>
    </g>
</svg>